<mxfile host="Electron" modified="2023-06-04T01:06:01.288Z" agent="Mozilla/5.0 (Windows NT 10.0; Win64; x64) AppleWebKit/537.36 (KHTML, like Gecko) draw.io/21.2.8 Chrome/112.0.5615.165 Electron/24.2.0 Safari/537.36" etag="y4Oa2k3taFIM5N2o_tc5" version="21.2.8" type="device">
  <diagram name="Page-1" id="LsccEEbauJEXnk9cm-ys">
    <mxGraphModel dx="2026" dy="1216" grid="1" gridSize="10" guides="1" tooltips="1" connect="1" arrows="1" fold="1" page="1" pageScale="1" pageWidth="1100" pageHeight="850" math="0" shadow="0">
      <root>
        <mxCell id="0" />
        <mxCell id="1" parent="0" />
        <mxCell id="eagy59n1ITnicn6toWXy-4" style="edgeStyle=orthogonalEdgeStyle;rounded=0;orthogonalLoop=1;jettySize=auto;html=1;" edge="1" parent="1" source="eagy59n1ITnicn6toWXy-15" target="eagy59n1ITnicn6toWXy-5">
          <mxGeometry relative="1" as="geometry">
            <mxPoint x="420" y="400" as="targetPoint" />
          </mxGeometry>
        </mxCell>
        <mxCell id="eagy59n1ITnicn6toWXy-3" value="start" style="ellipse;whiteSpace=wrap;html=1;fillColor=#008a00;strokeColor=#005700;fontColor=#ffffff;" vertex="1" parent="1">
          <mxGeometry x="30" y="460" width="80" height="80" as="geometry" />
        </mxCell>
        <mxCell id="eagy59n1ITnicn6toWXy-11" style="edgeStyle=orthogonalEdgeStyle;rounded=0;orthogonalLoop=1;jettySize=auto;html=1;" edge="1" parent="1" source="eagy59n1ITnicn6toWXy-5" target="eagy59n1ITnicn6toWXy-12">
          <mxGeometry relative="1" as="geometry">
            <mxPoint x="660" y="500" as="targetPoint" />
          </mxGeometry>
        </mxCell>
        <mxCell id="eagy59n1ITnicn6toWXy-5" value="Genral formart" style="rounded=0;whiteSpace=wrap;html=1;fillColor=#cdeb8b;strokeColor=#36393d;" vertex="1" parent="1">
          <mxGeometry x="480" y="420" width="120" height="160" as="geometry" />
        </mxCell>
        <mxCell id="eagy59n1ITnicn6toWXy-8" style="edgeStyle=orthogonalEdgeStyle;rounded=0;orthogonalLoop=1;jettySize=auto;html=1;" edge="1" parent="1" source="eagy59n1ITnicn6toWXy-9" target="eagy59n1ITnicn6toWXy-5">
          <mxGeometry relative="1" as="geometry" />
        </mxCell>
        <mxCell id="eagy59n1ITnicn6toWXy-30" style="edgeStyle=orthogonalEdgeStyle;rounded=0;orthogonalLoop=1;jettySize=auto;html=1;entryX=0;entryY=0.5;entryDx=0;entryDy=0;" edge="1" parent="1" source="eagy59n1ITnicn6toWXy-7" target="eagy59n1ITnicn6toWXy-21">
          <mxGeometry relative="1" as="geometry" />
        </mxCell>
        <mxCell id="eagy59n1ITnicn6toWXy-7" value="MD&lt;br&gt;File" style="rounded=0;whiteSpace=wrap;html=1;fillColor=#dae8fc;strokeColor=#6c8ebf;" vertex="1" parent="1">
          <mxGeometry x="480" y="140" width="120" height="60" as="geometry" />
        </mxCell>
        <mxCell id="eagy59n1ITnicn6toWXy-10" value="" style="edgeStyle=orthogonalEdgeStyle;rounded=0;orthogonalLoop=1;jettySize=auto;html=1;" edge="1" parent="1" source="eagy59n1ITnicn6toWXy-7" target="eagy59n1ITnicn6toWXy-9">
          <mxGeometry relative="1" as="geometry">
            <mxPoint x="530" y="170" as="sourcePoint" />
            <mxPoint x="540" y="420" as="targetPoint" />
          </mxGeometry>
        </mxCell>
        <mxCell id="eagy59n1ITnicn6toWXy-9" value="Convert" style="shape=parallelogram;perimeter=parallelogramPerimeter;whiteSpace=wrap;html=1;fixedSize=1;fillColor=#fff2cc;strokeColor=#d6b656;" vertex="1" parent="1">
          <mxGeometry x="480" y="270" width="120" height="60" as="geometry" />
        </mxCell>
        <mxCell id="eagy59n1ITnicn6toWXy-25" style="edgeStyle=orthogonalEdgeStyle;rounded=0;orthogonalLoop=1;jettySize=auto;html=1;entryX=0;entryY=0.5;entryDx=0;entryDy=0;" edge="1" parent="1" source="eagy59n1ITnicn6toWXy-12" target="eagy59n1ITnicn6toWXy-19">
          <mxGeometry relative="1" as="geometry" />
        </mxCell>
        <mxCell id="eagy59n1ITnicn6toWXy-27" style="edgeStyle=orthogonalEdgeStyle;rounded=0;orthogonalLoop=1;jettySize=auto;html=1;entryX=0;entryY=0.75;entryDx=0;entryDy=0;" edge="1" parent="1" source="eagy59n1ITnicn6toWXy-12" target="eagy59n1ITnicn6toWXy-20">
          <mxGeometry relative="1" as="geometry">
            <Array as="points">
              <mxPoint x="700" y="595" />
            </Array>
          </mxGeometry>
        </mxCell>
        <mxCell id="eagy59n1ITnicn6toWXy-31" style="edgeStyle=orthogonalEdgeStyle;rounded=0;orthogonalLoop=1;jettySize=auto;html=1;entryX=0;entryY=0.75;entryDx=0;entryDy=0;" edge="1" parent="1" source="eagy59n1ITnicn6toWXy-12" target="eagy59n1ITnicn6toWXy-21">
          <mxGeometry relative="1" as="geometry">
            <Array as="points">
              <mxPoint x="710" y="450" />
            </Array>
          </mxGeometry>
        </mxCell>
        <mxCell id="eagy59n1ITnicn6toWXy-12" value="Export" style="shape=parallelogram;perimeter=parallelogramPerimeter;whiteSpace=wrap;html=1;fixedSize=1;fillColor=#fff2cc;strokeColor=#d6b656;" vertex="1" parent="1">
          <mxGeometry x="650" y="470" width="120" height="60" as="geometry" />
        </mxCell>
        <mxCell id="eagy59n1ITnicn6toWXy-14" value="" style="edgeStyle=orthogonalEdgeStyle;rounded=0;orthogonalLoop=1;jettySize=auto;html=1;" edge="1" parent="1" source="eagy59n1ITnicn6toWXy-3" target="eagy59n1ITnicn6toWXy-13">
          <mxGeometry relative="1" as="geometry">
            <mxPoint x="480" y="500" as="targetPoint" />
            <mxPoint x="110" y="500" as="sourcePoint" />
          </mxGeometry>
        </mxCell>
        <mxCell id="eagy59n1ITnicn6toWXy-13" value="Custom edotir" style="rounded=0;whiteSpace=wrap;html=1;fillColor=#dae8fc;strokeColor=#6c8ebf;" vertex="1" parent="1">
          <mxGeometry x="170" y="465" width="120" height="70" as="geometry" />
        </mxCell>
        <mxCell id="eagy59n1ITnicn6toWXy-16" value="" style="edgeStyle=orthogonalEdgeStyle;rounded=0;orthogonalLoop=1;jettySize=auto;html=1;" edge="1" parent="1" source="eagy59n1ITnicn6toWXy-13" target="eagy59n1ITnicn6toWXy-15">
          <mxGeometry relative="1" as="geometry">
            <mxPoint x="480" y="500" as="targetPoint" />
            <mxPoint x="330" y="500" as="sourcePoint" />
          </mxGeometry>
        </mxCell>
        <mxCell id="eagy59n1ITnicn6toWXy-15" value="Save to" style="shape=parallelogram;perimeter=parallelogramPerimeter;whiteSpace=wrap;html=1;fixedSize=1;fillColor=#fff2cc;strokeColor=#d6b656;" vertex="1" parent="1">
          <mxGeometry x="340" y="477.5" width="100" height="45" as="geometry" />
        </mxCell>
        <mxCell id="eagy59n1ITnicn6toWXy-34" style="edgeStyle=orthogonalEdgeStyle;rounded=0;orthogonalLoop=1;jettySize=auto;html=1;" edge="1" parent="1" source="eagy59n1ITnicn6toWXy-19" target="eagy59n1ITnicn6toWXy-32">
          <mxGeometry relative="1" as="geometry" />
        </mxCell>
        <mxCell id="eagy59n1ITnicn6toWXy-19" value="Steam format" style="rounded=0;whiteSpace=wrap;html=1;fillColor=#e1d5e7;strokeColor=#9673a6;" vertex="1" parent="1">
          <mxGeometry x="830" y="470" width="120" height="60" as="geometry" />
        </mxCell>
        <mxCell id="eagy59n1ITnicn6toWXy-35" style="edgeStyle=orthogonalEdgeStyle;rounded=0;orthogonalLoop=1;jettySize=auto;html=1;entryX=0.5;entryY=1;entryDx=0;entryDy=0;" edge="1" parent="1" source="eagy59n1ITnicn6toWXy-20" target="eagy59n1ITnicn6toWXy-32">
          <mxGeometry relative="1" as="geometry" />
        </mxCell>
        <mxCell id="eagy59n1ITnicn6toWXy-20" value="blogs format" style="rounded=0;whiteSpace=wrap;html=1;fillColor=#e1d5e7;strokeColor=#9673a6;" vertex="1" parent="1">
          <mxGeometry x="830" y="550" width="120" height="60" as="geometry" />
        </mxCell>
        <mxCell id="eagy59n1ITnicn6toWXy-33" style="edgeStyle=orthogonalEdgeStyle;rounded=0;orthogonalLoop=1;jettySize=auto;html=1;" edge="1" parent="1" source="eagy59n1ITnicn6toWXy-21" target="eagy59n1ITnicn6toWXy-32">
          <mxGeometry relative="1" as="geometry">
            <Array as="points">
              <mxPoint x="975" y="435" />
              <mxPoint x="975" y="440" />
              <mxPoint x="1040" y="440" />
            </Array>
          </mxGeometry>
        </mxCell>
        <mxCell id="eagy59n1ITnicn6toWXy-21" value="MD file" style="rounded=0;whiteSpace=wrap;html=1;fillColor=#e1d5e7;strokeColor=#9673a6;" vertex="1" parent="1">
          <mxGeometry x="830" y="405" width="120" height="60" as="geometry" />
        </mxCell>
        <mxCell id="eagy59n1ITnicn6toWXy-29" style="edgeStyle=orthogonalEdgeStyle;rounded=0;orthogonalLoop=1;jettySize=auto;html=1;" edge="1" parent="1" source="eagy59n1ITnicn6toWXy-28" target="eagy59n1ITnicn6toWXy-7">
          <mxGeometry relative="1" as="geometry" />
        </mxCell>
        <mxCell id="eagy59n1ITnicn6toWXy-28" value="start" style="ellipse;whiteSpace=wrap;html=1;fillColor=#008a00;strokeColor=#005700;fontColor=#ffffff;" vertex="1" parent="1">
          <mxGeometry x="505" y="10" width="70" height="80" as="geometry" />
        </mxCell>
        <mxCell id="eagy59n1ITnicn6toWXy-32" value="END" style="ellipse;whiteSpace=wrap;html=1;fillColor=#a20025;fontColor=#ffffff;strokeColor=#6F0000;" vertex="1" parent="1">
          <mxGeometry x="1010" y="460" width="80" height="80" as="geometry" />
        </mxCell>
      </root>
    </mxGraphModel>
  </diagram>
</mxfile>
